<svg width="24" height="24" viewBox="0 0 24 24" fill="none" xmlns="http://www.w3.org/2000/svg">
<path fill-rule="evenodd" clip-rule="evenodd" d="M1.89257 2.03797C1.62085 2.11935 1.49325 2.37618 1.59891 2.62906C1.70579 2.88483 1.76362 2.89489 3.12784 2.89489H4.35158L4.37349 2.98685C4.38551 3.03741 4.89502 5.58017 5.50568 8.63738C6.31637 12.696 6.64842 14.2803 6.73613 14.5084C6.89749 14.9281 7.1325 15.2812 7.48261 15.6298C7.82769 15.9734 8.21765 16.2099 8.73983 16.3922L9.12202 16.5256H14.7512H20.3803L20.4865 16.4195C20.7223 16.1837 20.6254 15.7773 20.3128 15.6905C20.2074 15.6612 18.4248 15.6473 14.7682 15.6471C8.82027 15.6469 9.15084 15.6608 8.63156 15.3891C8.35796 15.2459 7.77427 14.6975 7.87543 14.6786C7.90915 14.6723 10.9139 14.2707 14.5526 13.7863C18.1914 13.3019 21.2285 12.8805 21.3017 12.8498C21.4016 12.8081 21.451 12.7497 21.4991 12.6163C21.5617 12.4426 22.4317 5.59349 22.438 5.22458C22.442 4.98675 22.3398 4.82988 22.1457 4.77597C22.0474 4.74867 19.2126 4.73449 13.8121 4.73437C9.31056 4.73424 5.62748 4.72864 5.62748 4.72198C5.62748 4.71528 5.51721 4.1602 5.38241 3.48843C5.11527 2.15695 5.09933 2.11628 4.81307 2.03674C4.63409 1.987 2.05916 1.98811 1.89257 2.03797ZM11.513 6.55476C11.513 6.5622 11.4775 6.56559 11.4341 6.56232C11.3907 6.55905 11.3637 6.54262 11.3741 6.52578C11.3914 6.49786 11.513 6.5232 11.513 6.55476ZM11.2825 6.58876C11.3651 6.6233 11.4426 6.69859 11.4829 6.78364C11.5308 6.88439 11.6108 7.58955 11.7761 9.36547C11.9012 10.7093 12.0035 11.8925 12.0035 11.9948C12.0035 12.152 11.9819 12.2026 11.8645 12.3199C11.7513 12.4331 11.6942 12.4589 11.5566 12.4589C11.1934 12.4589 11.0939 12.2717 11.0245 11.4575C10.9996 11.1653 10.8972 10.0378 10.7969 8.95197C10.6371 7.22215 10.6214 6.9616 10.6699 6.84707C10.7528 6.65101 10.8827 6.55647 11.0954 6.53722C11.1242 6.53461 11.2084 6.55782 11.2825 6.58876ZM14.0275 6.59694C14.2973 6.72495 14.2923 6.67439 14.2923 9.28933C14.2923 11.8285 14.295 11.7942 14.0791 11.9455C13.9619 12.0276 13.6826 12.0276 13.5655 11.9455C13.3494 11.7942 13.3523 11.8302 13.3523 9.26902C13.3523 6.63834 13.3432 6.73047 13.6158 6.59587C13.7756 6.51707 13.8596 6.51728 14.0275 6.59694ZM16.8566 6.66433C16.9075 6.71211 16.9646 6.80775 16.9835 6.87687C17.0069 6.96249 16.9427 7.6845 16.7819 9.1446L16.5461 11.2867L16.4198 11.413C16.3119 11.5209 16.2633 11.5393 16.0865 11.5393C15.9045 11.5393 15.8653 11.5233 15.7603 11.4058C15.6711 11.3059 15.6411 11.2316 15.6411 11.1104C15.6411 10.8529 16.0907 6.90556 16.1326 6.79545C16.1534 6.74077 16.2306 6.65837 16.3042 6.61235C16.4682 6.50984 16.7171 6.53326 16.8566 6.66433ZM19.4826 6.59354C19.6484 6.67933 19.7283 6.81041 19.7283 6.99699C19.7283 7.22403 18.8019 10.8638 18.7215 10.9526C18.6307 11.053 18.4026 11.1217 18.2625 11.0909C18.0782 11.0505 17.9252 10.8631 17.9237 10.6762C17.9224 10.5173 18.803 6.90421 18.8769 6.76529C18.9298 6.66581 19.1547 6.53281 19.2705 6.53265C19.3222 6.53256 19.4176 6.55995 19.4826 6.59354ZM8.55958 6.59898C8.77576 6.65694 8.7986 6.75364 9.28355 9.66625C9.77307 12.6063 9.7763 12.6396 9.58808 12.8099C9.54578 12.8482 9.41945 12.8883 9.30738 12.8991C9.11842 12.9173 9.0937 12.9087 8.96716 12.7808L8.83073 12.6428L8.37268 9.88397C8.12078 8.36661 7.91504 7.06598 7.91548 6.99372C7.91675 6.79194 8.12704 6.57319 8.31905 6.57393C8.401 6.57421 8.50923 6.58549 8.55958 6.59898ZM15.6741 11.6221C15.6615 11.6347 15.6386 11.612 15.6233 11.5717C15.6011 11.5135 15.6058 11.5088 15.6461 11.5488C15.6741 11.5766 15.6867 11.6095 15.6741 11.6221ZM8.75221 17.5407C7.92129 17.7527 7.25046 18.4407 7.05718 19.2794C6.97997 19.6142 7.02489 20.1841 7.15535 20.5261C7.74693 22.0764 9.69549 22.5001 10.8633 21.3323C11.1588 21.0368 11.381 20.6494 11.4751 20.2654C11.5921 19.7879 11.5168 19.1634 11.2878 18.7115C11.0482 18.2387 10.5283 17.7845 10.0212 17.605C9.71568 17.4969 9.0552 17.4634 8.75221 17.5407ZM17.9503 17.5131C17.7042 17.5656 17.3454 17.722 17.1016 17.8829C16.4806 18.2929 16.1188 18.9744 16.1188 19.7341C16.1188 20.3557 16.3412 20.8923 16.7813 21.3323C17.2213 21.7723 17.7612 21.9968 18.3795 21.9968C19.326 21.9968 20.1454 21.4257 20.4895 20.5261C20.6331 20.1507 20.6663 19.5839 20.567 19.2028C20.3579 18.3995 19.7178 17.7565 18.9221 17.5503C18.6954 17.4916 18.149 17.4706 17.9503 17.5131Z" fill="#74c247"/>
<rect x="11.3437" y="6.13489" width="0.510898" height="0.439372" fill="#74c247"/>
<rect x="15.2265" y="11.4789" width="0.510898" height="0.439372" fill="#74c247"/>
</svg>
